<mxfile host="Electron" modified="2024-04-29T13:28:24.783Z" agent="Mozilla/5.0 (Windows NT 10.0; Win64; x64) AppleWebKit/537.36 (KHTML, like Gecko) draw.io/24.2.5 Chrome/120.0.6099.109 Electron/28.1.0 Safari/537.36" etag="FZM_wF08sH5QlAgitPHZ" version="24.2.5" type="device">
  <diagram name="Page-1" id="0N1jWxUjmf3OXiF44smR">
    <mxGraphModel dx="3464" dy="1196" grid="1" gridSize="10" guides="1" tooltips="1" connect="1" arrows="1" fold="1" page="1" pageScale="1" pageWidth="1390" pageHeight="980" math="0" shadow="0">
      <root>
        <mxCell id="0" />
        <mxCell id="1" parent="0" />
        <mxCell id="rOP_cjojy7kU0tfFhgCD-6" value="" style="edgeStyle=orthogonalEdgeStyle;rounded=0;orthogonalLoop=1;jettySize=auto;html=1;" parent="1" source="hAfTDyD0POYM9Hd8VKS2-1" target="rOP_cjojy7kU0tfFhgCD-9" edge="1">
          <mxGeometry relative="1" as="geometry">
            <mxPoint x="-1177" y="294.4000000000001" as="targetPoint" />
          </mxGeometry>
        </mxCell>
        <mxCell id="hAfTDyD0POYM9Hd8VKS2-1" value="Download CSV" style="verticalLabelPosition=bottom;html=1;verticalAlign=top;strokeWidth=1;align=center;outlineConnect=0;dashed=0;outlineConnect=0;shape=mxgraph.aws3d.application;fillColor=#4286c5;strokeColor=#57A2D8;aspect=fixed;" parent="1" vertex="1">
          <mxGeometry x="-1290" y="260" width="62" height="68.8" as="geometry" />
        </mxCell>
        <mxCell id="rOP_cjojy7kU0tfFhgCD-8" value="" style="edgeStyle=orthogonalEdgeStyle;rounded=0;orthogonalLoop=1;jettySize=auto;html=1;" parent="1" source="hAfTDyD0POYM9Hd8VKS2-2" edge="1">
          <mxGeometry relative="1" as="geometry">
            <mxPoint x="-1148" y="634.4000000000001" as="targetPoint" />
          </mxGeometry>
        </mxCell>
        <mxCell id="hAfTDyD0POYM9Hd8VKS2-2" value="Download CSV + n" style="verticalLabelPosition=bottom;html=1;verticalAlign=top;strokeWidth=1;align=center;outlineConnect=0;dashed=0;outlineConnect=0;shape=mxgraph.aws3d.application;fillColor=#4286c5;strokeColor=#57A2D8;aspect=fixed;" parent="1" vertex="1">
          <mxGeometry x="-1290" y="600" width="62" height="68.8" as="geometry" />
        </mxCell>
        <mxCell id="rOP_cjojy7kU0tfFhgCD-9" value="software" style="shape=process;whiteSpace=wrap;html=1;backgroundOutline=1;" parent="1" vertex="1">
          <mxGeometry x="-1150" y="264.4" width="120" height="60" as="geometry" />
        </mxCell>
        <mxCell id="rOP_cjojy7kU0tfFhgCD-17" value="" style="edgeStyle=orthogonalEdgeStyle;rounded=0;orthogonalLoop=1;jettySize=auto;html=1;" parent="1" source="rOP_cjojy7kU0tfFhgCD-14" target="rOP_cjojy7kU0tfFhgCD-15" edge="1">
          <mxGeometry relative="1" as="geometry" />
        </mxCell>
        <mxCell id="rOP_cjojy7kU0tfFhgCD-14" value="software" style="shape=process;whiteSpace=wrap;html=1;backgroundOutline=1;" parent="1" vertex="1">
          <mxGeometry x="-1150" y="604.4" width="120" height="60" as="geometry" />
        </mxCell>
        <mxCell id="rOP_cjojy7kU0tfFhgCD-38" value="" style="edgeStyle=orthogonalEdgeStyle;rounded=0;orthogonalLoop=1;jettySize=auto;html=1;" parent="1" source="rOP_cjojy7kU0tfFhgCD-15" target="rOP_cjojy7kU0tfFhgCD-36" edge="1">
          <mxGeometry relative="1" as="geometry" />
        </mxCell>
        <mxCell id="rOP_cjojy7kU0tfFhgCD-39" style="edgeStyle=orthogonalEdgeStyle;rounded=0;orthogonalLoop=1;jettySize=auto;html=1;" parent="1" source="rOP_cjojy7kU0tfFhgCD-15" target="rOP_cjojy7kU0tfFhgCD-35" edge="1">
          <mxGeometry relative="1" as="geometry">
            <Array as="points">
              <mxPoint x="-929" y="570" />
            </Array>
          </mxGeometry>
        </mxCell>
        <mxCell id="rOP_cjojy7kU0tfFhgCD-40" style="edgeStyle=orthogonalEdgeStyle;rounded=0;orthogonalLoop=1;jettySize=auto;html=1;" parent="1" source="rOP_cjojy7kU0tfFhgCD-15" target="rOP_cjojy7kU0tfFhgCD-37" edge="1">
          <mxGeometry relative="1" as="geometry">
            <Array as="points">
              <mxPoint x="-929" y="694" />
            </Array>
          </mxGeometry>
        </mxCell>
        <mxCell id="rOP_cjojy7kU0tfFhgCD-15" value="Processus de&amp;nbsp;&lt;div&gt;décomposition CSV&lt;/div&gt;" style="verticalLabelPosition=bottom;html=1;verticalAlign=top;strokeWidth=1;align=center;outlineConnect=0;dashed=0;outlineConnect=0;shape=mxgraph.aws3d.ebs2;fillColor=#ECECEC;strokeColor=#5E5E5E;aspect=fixed;" parent="1" vertex="1">
          <mxGeometry x="-960" y="614.4" width="61.33" height="40" as="geometry" />
        </mxCell>
        <mxCell id="rOP_cjojy7kU0tfFhgCD-16" value="" style="edgeStyle=orthogonalEdgeStyle;rounded=0;orthogonalLoop=1;jettySize=auto;html=1;" parent="1" source="rOP_cjojy7kU0tfFhgCD-9" target="rOP_cjojy7kU0tfFhgCD-12" edge="1">
          <mxGeometry relative="1" as="geometry">
            <mxPoint x="-1030" y="294" as="sourcePoint" />
            <mxPoint x="-910" y="294" as="targetPoint" />
          </mxGeometry>
        </mxCell>
        <mxCell id="rOP_cjojy7kU0tfFhgCD-23" style="edgeStyle=orthogonalEdgeStyle;rounded=0;orthogonalLoop=1;jettySize=auto;html=1;" parent="1" source="rOP_cjojy7kU0tfFhgCD-12" target="rOP_cjojy7kU0tfFhgCD-18" edge="1">
          <mxGeometry relative="1" as="geometry">
            <Array as="points">
              <mxPoint x="-929" y="240" />
            </Array>
          </mxGeometry>
        </mxCell>
        <mxCell id="rOP_cjojy7kU0tfFhgCD-24" value="" style="edgeStyle=orthogonalEdgeStyle;rounded=0;orthogonalLoop=1;jettySize=auto;html=1;" parent="1" source="rOP_cjojy7kU0tfFhgCD-12" target="rOP_cjojy7kU0tfFhgCD-19" edge="1">
          <mxGeometry relative="1" as="geometry" />
        </mxCell>
        <mxCell id="rOP_cjojy7kU0tfFhgCD-25" style="edgeStyle=orthogonalEdgeStyle;rounded=0;orthogonalLoop=1;jettySize=auto;html=1;" parent="1" source="rOP_cjojy7kU0tfFhgCD-12" target="rOP_cjojy7kU0tfFhgCD-20" edge="1">
          <mxGeometry relative="1" as="geometry">
            <Array as="points">
              <mxPoint x="-929" y="360" />
            </Array>
          </mxGeometry>
        </mxCell>
        <mxCell id="rOP_cjojy7kU0tfFhgCD-12" value="Processus de&amp;nbsp;&lt;div&gt;décomposition CSV&lt;/div&gt;" style="verticalLabelPosition=bottom;html=1;verticalAlign=top;strokeWidth=1;align=center;outlineConnect=0;dashed=0;outlineConnect=0;shape=mxgraph.aws3d.ebs2;fillColor=#ECECEC;strokeColor=#5E5E5E;aspect=fixed;" parent="1" vertex="1">
          <mxGeometry x="-960" y="274.4" width="61.33" height="40" as="geometry" />
        </mxCell>
        <mxCell id="HLrwGqFb41YMY5W4BXXz-1" style="edgeStyle=orthogonalEdgeStyle;rounded=0;orthogonalLoop=1;jettySize=auto;html=1;" edge="1" parent="1" source="rOP_cjojy7kU0tfFhgCD-18" target="rOP_cjojy7kU0tfFhgCD-26">
          <mxGeometry relative="1" as="geometry" />
        </mxCell>
        <mxCell id="rOP_cjojy7kU0tfFhgCD-18" value="Decompiled CSV" style="verticalLabelPosition=bottom;html=1;verticalAlign=top;strokeWidth=1;align=center;outlineConnect=0;dashed=0;outlineConnect=0;shape=mxgraph.aws3d.application2;fillColor=#86E83A;strokeColor=#B0F373;aspect=fixed;" parent="1" vertex="1">
          <mxGeometry x="-800" y="219.4" width="35.09" height="30" as="geometry" />
        </mxCell>
        <mxCell id="HLrwGqFb41YMY5W4BXXz-2" style="edgeStyle=orthogonalEdgeStyle;rounded=0;orthogonalLoop=1;jettySize=auto;html=1;" edge="1" parent="1" source="rOP_cjojy7kU0tfFhgCD-19">
          <mxGeometry relative="1" as="geometry">
            <mxPoint x="-620" y="480" as="targetPoint" />
          </mxGeometry>
        </mxCell>
        <mxCell id="rOP_cjojy7kU0tfFhgCD-19" value="Decompiled CSV" style="verticalLabelPosition=bottom;html=1;verticalAlign=top;strokeWidth=1;align=center;outlineConnect=0;dashed=0;outlineConnect=0;shape=mxgraph.aws3d.application2;fillColor=#86E83A;strokeColor=#B0F373;aspect=fixed;" parent="1" vertex="1">
          <mxGeometry x="-800" y="278.79999999999995" width="35.09" height="30" as="geometry" />
        </mxCell>
        <mxCell id="HLrwGqFb41YMY5W4BXXz-3" style="edgeStyle=orthogonalEdgeStyle;rounded=0;orthogonalLoop=1;jettySize=auto;html=1;" edge="1" parent="1" source="rOP_cjojy7kU0tfFhgCD-20" target="rOP_cjojy7kU0tfFhgCD-26">
          <mxGeometry relative="1" as="geometry" />
        </mxCell>
        <mxCell id="rOP_cjojy7kU0tfFhgCD-20" value="Decompiled CSV" style="verticalLabelPosition=bottom;html=1;verticalAlign=top;strokeWidth=1;align=center;outlineConnect=0;dashed=0;outlineConnect=0;shape=mxgraph.aws3d.application2;fillColor=#86E83A;strokeColor=#B0F373;aspect=fixed;" parent="1" vertex="1">
          <mxGeometry x="-800" y="339.4" width="35.09" height="30" as="geometry" />
        </mxCell>
        <mxCell id="HLrwGqFb41YMY5W4BXXz-7" style="edgeStyle=orthogonalEdgeStyle;rounded=0;orthogonalLoop=1;jettySize=auto;html=1;" edge="1" parent="1" source="rOP_cjojy7kU0tfFhgCD-26" target="rOP_cjojy7kU0tfFhgCD-27">
          <mxGeometry relative="1" as="geometry">
            <Array as="points">
              <mxPoint x="-590" y="440" />
            </Array>
          </mxGeometry>
        </mxCell>
        <mxCell id="HLrwGqFb41YMY5W4BXXz-8" style="edgeStyle=orthogonalEdgeStyle;rounded=0;orthogonalLoop=1;jettySize=auto;html=1;" edge="1" parent="1" source="rOP_cjojy7kU0tfFhgCD-26" target="rOP_cjojy7kU0tfFhgCD-28">
          <mxGeometry relative="1" as="geometry" />
        </mxCell>
        <mxCell id="HLrwGqFb41YMY5W4BXXz-9" style="edgeStyle=orthogonalEdgeStyle;rounded=0;orthogonalLoop=1;jettySize=auto;html=1;" edge="1" parent="1" source="rOP_cjojy7kU0tfFhgCD-26" target="rOP_cjojy7kU0tfFhgCD-29">
          <mxGeometry relative="1" as="geometry">
            <Array as="points">
              <mxPoint x="-590" y="540" />
            </Array>
          </mxGeometry>
        </mxCell>
        <mxCell id="rOP_cjojy7kU0tfFhgCD-26" value="Processus principal PM2" style="verticalLabelPosition=bottom;html=1;verticalAlign=top;strokeWidth=1;align=center;outlineConnect=0;dashed=0;outlineConnect=0;shape=mxgraph.aws3d.ebs2;fillColor=#ECECEC;strokeColor=#5E5E5E;aspect=fixed;" parent="1" vertex="1">
          <mxGeometry x="-650" y="470" width="61.33" height="40" as="geometry" />
        </mxCell>
        <mxCell id="HLrwGqFb41YMY5W4BXXz-11" style="edgeStyle=orthogonalEdgeStyle;rounded=0;orthogonalLoop=1;jettySize=auto;html=1;" edge="1" parent="1" source="rOP_cjojy7kU0tfFhgCD-27" target="rOP_cjojy7kU0tfFhgCD-33">
          <mxGeometry relative="1" as="geometry" />
        </mxCell>
        <mxCell id="rOP_cjojy7kU0tfFhgCD-27" value="Worker 1" style="verticalLabelPosition=bottom;html=1;verticalAlign=top;strokeWidth=1;align=center;outlineConnect=0;dashed=0;outlineConnect=0;shape=mxgraph.aws3d.ami;aspect=fixed;fillColor=#E8CA45;strokeColor=#FFF215;" parent="1" vertex="1">
          <mxGeometry x="-429.99999999999994" y="425" width="34.96" height="22.8" as="geometry" />
        </mxCell>
        <mxCell id="HLrwGqFb41YMY5W4BXXz-10" style="edgeStyle=orthogonalEdgeStyle;rounded=0;orthogonalLoop=1;jettySize=auto;html=1;" edge="1" parent="1" source="rOP_cjojy7kU0tfFhgCD-28">
          <mxGeometry relative="1" as="geometry">
            <mxPoint x="-280" y="489.20000000000005" as="targetPoint" />
          </mxGeometry>
        </mxCell>
        <mxCell id="rOP_cjojy7kU0tfFhgCD-28" value="Worker 2" style="verticalLabelPosition=bottom;html=1;verticalAlign=top;strokeWidth=1;align=center;outlineConnect=0;dashed=0;outlineConnect=0;shape=mxgraph.aws3d.ami;aspect=fixed;fillColor=#E8CA45;strokeColor=#FFF215;" parent="1" vertex="1">
          <mxGeometry x="-429.99999999999994" y="477.79999999999995" width="34.96" height="22.8" as="geometry" />
        </mxCell>
        <mxCell id="HLrwGqFb41YMY5W4BXXz-12" style="edgeStyle=orthogonalEdgeStyle;rounded=0;orthogonalLoop=1;jettySize=auto;html=1;" edge="1" parent="1" source="rOP_cjojy7kU0tfFhgCD-29" target="rOP_cjojy7kU0tfFhgCD-33">
          <mxGeometry relative="1" as="geometry" />
        </mxCell>
        <mxCell id="rOP_cjojy7kU0tfFhgCD-29" value="Worker 3" style="verticalLabelPosition=bottom;html=1;verticalAlign=top;strokeWidth=1;align=center;outlineConnect=0;dashed=0;outlineConnect=0;shape=mxgraph.aws3d.ami;aspect=fixed;fillColor=#E8CA45;strokeColor=#FFF215;" parent="1" vertex="1">
          <mxGeometry x="-429.99999999999994" y="532.1999999999999" width="34.96" height="22.8" as="geometry" />
        </mxCell>
        <mxCell id="rOP_cjojy7kU0tfFhgCD-30" value="PM2 Cluster instances" style="text;html=1;align=center;verticalAlign=middle;whiteSpace=wrap;rounded=0;" parent="1" vertex="1">
          <mxGeometry x="-469.0199999999999" y="140" width="113" height="30" as="geometry" />
        </mxCell>
        <mxCell id="rOP_cjojy7kU0tfFhgCD-31" value="PM2 Process&lt;div&gt;main&lt;/div&gt;" style="text;html=1;align=center;verticalAlign=middle;whiteSpace=wrap;rounded=0;" parent="1" vertex="1">
          <mxGeometry x="-675.83" y="140" width="113" height="30" as="geometry" />
        </mxCell>
        <mxCell id="rOP_cjojy7kU0tfFhgCD-32" value="Cluster Mongodb" style="text;html=1;align=center;verticalAlign=middle;whiteSpace=wrap;rounded=0;" parent="1" vertex="1">
          <mxGeometry x="-308.65" y="140" width="113" height="30" as="geometry" />
        </mxCell>
        <mxCell id="rOP_cjojy7kU0tfFhgCD-33" value="" style="verticalLabelPosition=bottom;html=1;verticalAlign=top;strokeWidth=1;align=center;outlineConnect=0;dashed=0;outlineConnect=0;shape=mxgraph.aws3d.dynamoDb;fillColor=#ECECEC;strokeColor=#5E5E5E;aspect=fixed;" parent="1" vertex="1">
          <mxGeometry x="-269.4299999999999" y="470.6" width="34.57" height="40" as="geometry" />
        </mxCell>
        <mxCell id="rOP_cjojy7kU0tfFhgCD-34" value="CSV Process" style="text;html=1;align=center;verticalAlign=middle;whiteSpace=wrap;rounded=0;" parent="1" vertex="1">
          <mxGeometry x="-1146.5" y="140" width="113" height="30" as="geometry" />
        </mxCell>
        <mxCell id="HLrwGqFb41YMY5W4BXXz-4" style="edgeStyle=orthogonalEdgeStyle;rounded=0;orthogonalLoop=1;jettySize=auto;html=1;" edge="1" parent="1" source="rOP_cjojy7kU0tfFhgCD-35" target="rOP_cjojy7kU0tfFhgCD-26">
          <mxGeometry relative="1" as="geometry" />
        </mxCell>
        <mxCell id="rOP_cjojy7kU0tfFhgCD-35" value="Decompiled CSV" style="verticalLabelPosition=bottom;html=1;verticalAlign=top;strokeWidth=1;align=center;outlineConnect=0;dashed=0;outlineConnect=0;shape=mxgraph.aws3d.application2;fillColor=#86E83A;strokeColor=#B0F373;aspect=fixed;" parent="1" vertex="1">
          <mxGeometry x="-800" y="559.4" width="35.09" height="30" as="geometry" />
        </mxCell>
        <mxCell id="HLrwGqFb41YMY5W4BXXz-5" style="edgeStyle=orthogonalEdgeStyle;rounded=0;orthogonalLoop=1;jettySize=auto;html=1;" edge="1" parent="1" source="rOP_cjojy7kU0tfFhgCD-36">
          <mxGeometry relative="1" as="geometry">
            <mxPoint x="-620" y="510" as="targetPoint" />
          </mxGeometry>
        </mxCell>
        <mxCell id="rOP_cjojy7kU0tfFhgCD-36" value="Decompiled CSV" style="verticalLabelPosition=bottom;html=1;verticalAlign=top;strokeWidth=1;align=center;outlineConnect=0;dashed=0;outlineConnect=0;shape=mxgraph.aws3d.application2;fillColor=#86E83A;strokeColor=#B0F373;aspect=fixed;" parent="1" vertex="1">
          <mxGeometry x="-800" y="618.8" width="35.09" height="30" as="geometry" />
        </mxCell>
        <mxCell id="HLrwGqFb41YMY5W4BXXz-6" style="edgeStyle=orthogonalEdgeStyle;rounded=0;orthogonalLoop=1;jettySize=auto;html=1;" edge="1" parent="1" source="rOP_cjojy7kU0tfFhgCD-37">
          <mxGeometry relative="1" as="geometry">
            <mxPoint x="-620" y="570" as="targetPoint" />
          </mxGeometry>
        </mxCell>
        <mxCell id="rOP_cjojy7kU0tfFhgCD-37" value="Decompiled CSV" style="verticalLabelPosition=bottom;html=1;verticalAlign=top;strokeWidth=1;align=center;outlineConnect=0;dashed=0;outlineConnect=0;shape=mxgraph.aws3d.application2;fillColor=#86E83A;strokeColor=#B0F373;aspect=fixed;" parent="1" vertex="1">
          <mxGeometry x="-800" y="679.4" width="35.09" height="30" as="geometry" />
        </mxCell>
      </root>
    </mxGraphModel>
  </diagram>
</mxfile>
